<svg xmlns="http://www.w3.org/2000/svg" version="1.1" xmlns:xlink="http://www.w3.org/1999/xlink" width="512" height="512" x="0" y="0" viewBox="0 0 24 24" style="enable-background:new 0 0 512 512" xml:space="preserve" class=""><g><g data-name="Layer 2"><path d="M6 19.75H4A1.752 1.752 0 0 1 2.25 18V3A1.752 1.752 0 0 1 4 1.25h13A1.752 1.752 0 0 1 18.75 3v2a.75.75 0 0 1-1.5 0V3a.253.253 0 0 0-.25-.25H4a.253.253 0 0 0-.25.25v15a.253.253 0 0 0 .25.25h2a.75.75 0 0 1 0 1.5Z" fill="#ffffff" opacity="1" data-original="#000000" class=""></path><path d="M20 22.75H7A1.752 1.752 0 0 1 5.25 21V6A1.752 1.752 0 0 1 7 4.25h13A1.752 1.752 0 0 1 21.75 6v15A1.752 1.752 0 0 1 20 22.75Zm-13-17a.25.25 0 0 0-.25.25v15a.25.25 0 0 0 .25.25h13a.25.25 0 0 0 .25-.25V6a.25.25 0 0 0-.25-.25Z" fill="#ffffff" opacity="1" data-original="#000000" class=""></path></g></g></svg>