 <svg
              width="40"
              height="40"
              viewBox="0 0 40 40"
              fill="none"
              xmlns="http://www.w3.org/2000/svg"
            >
              <path
                d="M0 11.9149C0 9.79976 1.71465 8.08511 3.82979 8.08511C5.94492 8.08511 7.65957 9.79976 7.65957 11.9149C7.65957 14.03 5.94492 15.7447 3.82979 15.7447C1.71465 15.7447 0 14.03 0 11.9149Z"
                fill="#80091B"
              />
              <path
                d="M0 20C0 17.8849 1.71465 16.1702 3.82979 16.1702C5.94492 16.1702 7.65957 17.8849 7.65957 20C7.65957 22.1151 5.94492 23.8298 3.82979 23.8298C1.71465 23.8298 0 22.1151 0 20Z"
                fill="#80091B"
              />
              <path
                d="M0 28.0851C0 25.97 1.71465 24.2553 3.82979 24.2553C5.94492 24.2553 7.65957 25.97 7.65957 28.0851C7.65957 30.2002 5.94492 31.9149 3.82979 31.9149C1.71465 31.9149 0 30.2002 0 28.0851Z"
                fill="#80091B"
              />
              <path
                d="M8.08511 3.82979C8.08511 1.71465 9.79976 0 11.9149 0C14.03 0 15.7447 1.71465 15.7447 3.82979C15.7447 5.94492 14.03 7.65957 11.9149 7.65957C9.79976 7.65957 8.08511 5.94492 8.08511 3.82979Z"
                fill="#80091B"
              />
              <path
                d="M8.08511 11.9149C8.08511 9.79976 9.79976 8.08511 11.9149 8.08511C14.03 8.08511 15.7447 9.79976 15.7447 11.9149C15.7447 14.03 14.03 15.7447 11.9149 15.7447C9.79976 15.7447 8.08511 14.03 8.08511 11.9149Z"
                fill="#80091B"
              />
              <path
                d="M8.08511 20C8.08511 17.8849 9.79976 16.1702 11.9149 16.1702C14.03 16.1702 15.7447 17.8849 15.7447 20C15.7447 22.1151 14.03 23.8298 11.9149 23.8298C9.79976 23.8298 8.08511 22.1151 8.08511 20Z"
                fill="#80091B"
              />
              <path
                d="M8.08511 28.0851C8.08511 25.97 9.79976 24.2553 11.9149 24.2553C14.03 24.2553 15.7447 25.97 15.7447 28.0851C15.7447 30.2002 14.03 31.9149 11.9149 31.9149C9.79976 31.9149 8.08511 30.2002 8.08511 28.0851Z"
                fill="#80091B"
              />
              <path
                d="M8.08511 36.1702C8.08511 34.0551 9.79976 32.3404 11.9149 32.3404C14.03 32.3404 15.7447 34.0551 15.7447 36.1702C15.7447 38.2853 14.03 40 11.9149 40C9.79976 40 8.08511 38.2853 8.08511 36.1702Z"
                fill="#80091B"
              />
              <path
                d="M16.1702 3.82979C16.1702 1.71465 17.8849 0 20 0C22.1151 0 23.8298 1.71465 23.8298 3.82979C23.8298 5.94492 22.1151 7.65957 20 7.65957C17.8849 7.65957 16.1702 5.94492 16.1702 3.82979Z"
                fill="#80091B"
              />
              <path
                d="M16.1702 11.9149C16.1702 9.79976 17.8849 8.08511 20 8.08511C22.1151 8.08511 23.8298 9.79976 23.8298 11.9149C23.8298 14.03 22.1151 15.7447 20 15.7447C17.8849 15.7447 16.1702 14.03 16.1702 11.9149Z"
                fill="#80091B"
              />
              <path
                d="M16.1702 20C16.1702 17.8849 17.8849 16.1702 20 16.1702C22.1151 16.1702 23.8298 17.8849 23.8298 20C23.8298 22.1151 22.1151 23.8298 20 23.8298C17.8849 23.8298 16.1702 22.1151 16.1702 20Z"
                fill="#80091B"
              />
              <path
                d="M16.1702 28.0851C16.1702 25.97 17.8849 24.2553 20 24.2553C22.1151 24.2553 23.8298 25.97 23.8298 28.0851C23.8298 30.2002 22.1151 31.9149 20 31.9149C17.8849 31.9149 16.1702 30.2002 16.1702 28.0851Z"
                fill="#80091B"
              />
              <path
                d="M16.1702 36.1702C16.1702 34.0551 17.8849 32.3404 20 32.3404C22.1151 32.3404 23.8298 34.0551 23.8298 36.1702C23.8298 38.2853 22.1151 40 20 40C17.8849 40 16.1702 38.2853 16.1702 36.1702Z"
                fill="#80091B"
              />
              <path
                d="M24.2553 3.82979C24.2553 1.71465 25.97 0 28.0851 0C30.2002 0 31.9149 1.71465 31.9149 3.82979C31.9149 5.94492 30.2002 7.65957 28.0851 7.65957C25.97 7.65957 24.2553 5.94492 24.2553 3.82979Z"
                fill="#80091B"
              />
              <path
                d="M24.2553 11.9149C24.2553 9.79976 25.97 8.08511 28.0851 8.08511C30.2002 8.08511 31.9149 9.79976 31.9149 11.9149C31.9149 14.03 30.2002 15.7447 28.0851 15.7447C25.97 15.7447 24.2553 14.03 24.2553 11.9149Z"
                fill="#80091B"
              />
              <path
                d="M24.2553 20C24.2553 17.8849 25.97 16.1702 28.0851 16.1702C30.2002 16.1702 31.9149 17.8849 31.9149 20C31.9149 22.1151 30.2002 23.8298 28.0851 23.8298C25.97 23.8298 24.2553 22.1151 24.2553 20Z"
                fill="#80091B"
              />
              <path
                d="M24.2553 28.0851C24.2553 25.97 25.97 24.2553 28.0851 24.2553C30.2002 24.2553 31.9149 25.97 31.9149 28.0851C31.9149 30.2002 30.2002 31.9149 28.0851 31.9149C25.97 31.9149 24.2553 30.2002 24.2553 28.0851Z"
                fill="#80091B"
              />
              <path
                d="M24.2553 36.1702C24.2553 34.0551 25.97 32.3404 28.0851 32.3404C30.2002 32.3404 31.9149 34.0551 31.9149 36.1702C31.9149 38.2853 30.2002 40 28.0851 40C25.97 40 24.2553 38.2853 24.2553 36.1702Z"
                fill="#80091B"
              />
              <path
                d="M32.3404 11.9149C32.3404 9.79976 34.0551 8.08511 36.1702 8.08511C38.2853 8.08511 40 9.79976 40 11.9149C40 14.03 38.2853 15.7447 36.1702 15.7447C34.0551 15.7447 32.3404 14.03 32.3404 11.9149Z"
                fill="#80091B"
              />
              <path
                d="M32.3404 20C32.3404 17.8849 34.0551 16.1702 36.1702 16.1702C38.2853 16.1702 40 17.8849 40 20C40 22.1151 38.2853 23.8298 36.1702 23.8298C34.0551 23.8298 32.3404 22.1151 32.3404 20Z"
                fill="#80091B"
              />
              <path
                d="M32.3404 28.0851C32.3404 25.97 34.0551 24.2553 36.1702 24.2553C38.2853 24.2553 40 25.97 40 28.0851C40 30.2002 38.2853 31.9149 36.1702 31.9149C34.0551 31.9149 32.3404 30.2002 32.3404 28.0851Z"
                fill="#80091B"
              />
            </svg>